HIERARCHY
ROOT hip
{
  OFFSET 0 0 0
  CHANNELS 6 Xposition Yposition Zposition Zrotation Yrotation Xrotation
  JOINT abdomen
  {
    OFFSET 0 20.6881 -0.73152
    CHANNELS 3 Zrotation Xrotation Yrotation
    JOINT chest
    {
      OFFSET 0 11.7043 -0.48768
      CHANNELS 3 Zrotation Xrotation Yrotation
      JOINT neck
      {
        OFFSET 0 22.1894 -2.19456
        CHANNELS 3 Zrotation Xrotation Yrotation
        JOINT head
        {
          OFFSET -0.24384 7.07133 1.2192
          CHANNELS 3 Zrotation Xrotation Yrotation
          JOINT leftEye
          {
            OFFSET 4.14528 8.04674 8.04672
            CHANNELS 3 Zrotation Xrotation Yrotation
            End Site
            {
              OFFSET 1 0 0
            }
          }
          JOINT rightEye
          {
            OFFSET -3.6576 8.04674 8.04672
            CHANNELS 3 Zrotation Xrotation Yrotation
            End Site
            {
              OFFSET 1 0 0
            }
          }
        }
      }
      JOINT rCollar
      {
        OFFSET -2.68224 19.2634 -4.8768
        CHANNELS 3 Zrotation Xrotation Yrotation
        JOINT rShldr
        {
          OFFSET -8.77824 -1.95073 1.46304
          CHANNELS 3 Zrotation Xrotation Yrotation
          JOINT rForeArm
          {
            OFFSET -28.1742 -1.7115 0.48768
            CHANNELS 3 Zrotation Xrotation Yrotation
            JOINT rHand
            {
              OFFSET -22.5879 0.773209 7.07136
              CHANNELS 3 Zrotation Xrotation Yrotation
              JOINT rThumb1
              {
                OFFSET -1.2192 -0.487915 3.41376
                CHANNELS 3 Zrotation Xrotation Yrotation
                JOINT rThumb2
                {
                  OFFSET -3.37035 -0.52449 3.41376
                  CHANNELS 3 Zrotation Xrotation Yrotation
                  End Site
                  {
                    OFFSET -1.78271 -1.18214 1.43049
                  }
                }
              }
              JOINT rIndex1
              {
                OFFSET -7.75947 0.938293 5.60832
                CHANNELS 3 Zrotation Xrotation Yrotation
                JOINT rIndex2
                {
                  OFFSET -2.54057 -0.884171 1.56538
                  CHANNELS 3 Zrotation Xrotation Yrotation
                  End Site
                  {
                    OFFSET -1.62519 -0.234802 1.16502
                  }
                }
              }
              JOINT rMid1
              {
                OFFSET -8.24714 1.18213 3.41376
                CHANNELS 3 Zrotation Xrotation Yrotation
                JOINT rMid2
                {
                  OFFSET -3.10165 -0.590103 1.0647
                  CHANNELS 3 Zrotation Xrotation Yrotation
                  End Site
                  {
                    OFFSET -2.48547 -0.328903 0.83742
                  }
                }
              }
              JOINT rRing1
              {
                OFFSET -8.82822 0.546677 1.51678
                CHANNELS 3 Zrotation Xrotation Yrotation
                JOINT rRing2
                {
                  OFFSET -2.60934 -0.819778 -0.0198488
                  CHANNELS 3 Zrotation Xrotation Yrotation
                  End Site
                  {
                    OFFSET -2.33842 -0.294052 0.168128
                  }
                }
              }
              JOINT rPinky1
              {
                OFFSET -8.27202 -0.0477905 -0.4584
                CHANNELS 3 Zrotation Xrotation Yrotation
                JOINT rPinky2
                {
                  OFFSET -1.82734 -0.647385 -0.700984
                  CHANNELS 3 Zrotation Xrotation Yrotation
                  End Site
                  {
                    OFFSET -1.69225 -0.51767 -0.607171
                  }
                }
              }
            }
          }
        }
      }
      JOINT lCollar
      {
        OFFSET 2.68224 19.2634 -4.8768
        CHANNELS 3 Zrotation Xrotation Yrotation
        JOINT lShldr
        {
          OFFSET 8.77824 -1.95073 1.46304
          CHANNELS 3 Zrotation Xrotation Yrotation
          JOINT lForeArm
          {
            OFFSET 28.1742 -1.7115 0.48768
            CHANNELS 3 Zrotation Xrotation Yrotation
            JOINT lHand
            {
              OFFSET 22.5879 0.773209 7.07136
              CHANNELS 3 Zrotation Xrotation Yrotation
              JOINT lThumb1
              {
                OFFSET 1.2192 -0.487915 3.41376
                CHANNELS 3 Zrotation Xrotation Yrotation
                JOINT lThumb2
                {
                  OFFSET 3.37035 -0.52449 3.41376
                  CHANNELS 3 Zrotation Xrotation Yrotation
                  End Site
                  {
                    OFFSET 1.78271 -1.18214 1.43049
                  }
                }
              }
              JOINT lIndex1
              {
                OFFSET 7.75947 0.938293 5.60832
                CHANNELS 3 Zrotation Xrotation Yrotation
                JOINT lIndex2
                {
                  OFFSET 2.54057 -0.884171 1.56538
                  CHANNELS 3 Zrotation Xrotation Yrotation
                  End Site
                  {
                    OFFSET 1.62519 -0.234802 1.16502
                  }
                }
              }
              JOINT lMid1
              {
                OFFSET 8.24714 1.18213 3.41376
                CHANNELS 3 Zrotation Xrotation Yrotation
                JOINT lMid2
                {
                  OFFSET 3.10165 -0.590103 1.0647
                  CHANNELS 3 Zrotation Xrotation Yrotation
                  End Site
                  {
                    OFFSET 2.48547 -0.328903 0.83742
                  }
                }
              }
              JOINT lRing1
              {
                OFFSET 8.82822 0.546677 1.51678
                CHANNELS 3 Zrotation Xrotation Yrotation
                JOINT lRing2
                {
                  OFFSET 2.60934 -0.819778 -0.0198488
                  CHANNELS 3 Zrotation Xrotation Yrotation
                  End Site
                  {
                    OFFSET 2.33842 -0.294052 0.168128
                  }
                }
              }
              JOINT lPinky1
              {
                OFFSET 8.27202 -0.0477905 -0.4584
                CHANNELS 3 Zrotation Xrotation Yrotation
                JOINT lPinky2
                {
                  OFFSET 1.82734 -0.647385 -0.700984
                  CHANNELS 3 Zrotation Xrotation Yrotation
                  End Site
                  {
                    OFFSET 1.69225 -0.51767 -0.607171
                  }
                }
              }
            }
          }
        }
      }
    }
  }
  JOINT rButtock
  {
    OFFSET -8.77824 4.35084 1.2192
    CHANNELS 3 Zrotation Xrotation Yrotation
    JOINT rThigh
    {
      OFFSET 0 -1.70687 -2.19456
      CHANNELS 3 Zrotation Xrotation Yrotation
      JOINT rShin
      {
        OFFSET 0 -36.8199 0.73152
        CHANNELS 3 Zrotation Xrotation Yrotation
        JOINT rFoot
        {
          OFFSET 0.73152 -45.1104 -5.12064
          CHANNELS 3 Zrotation Xrotation Yrotation
          End Site
          {
            OFFSET -1.1221 -3.69964 12.103
          }
        }
      }
    }
  }
  JOINT lButtock
  {
    OFFSET 8.77824 4.35084 1.2192
    CHANNELS 3 Zrotation Xrotation Yrotation
    JOINT lThigh
    {
      OFFSET 0 -1.70687 -2.19456
      CHANNELS 3 Zrotation Xrotation Yrotation
      JOINT lShin
      {
        OFFSET 0 -36.8199 0.73152
        CHANNELS 3 Zrotation Xrotation Yrotation
        JOINT lFoot
        {
          OFFSET -0.73152 -45.1104 -5.12064
          CHANNELS 3 Zrotation Xrotation Yrotation
          End Site
          {
            OFFSET 1.1221 -3.69964 12.103
          }
        }
      }
    }
  }
}
MOTION
Frames:	7
Frame Time:	0.00833333
50.9956 84.6425 132.872 -179.651 2.996 -176.279 3.10102 5.35397 2.10321 -0.116755 -8.54677 0.742152 -5.39162 8.35109 -2.11598 9.45556 -22.7903 -1.5038 -0.0 0.0 0.0 -0.0 0.0 0.0 -4.82681e-14 5.05547e-14 -1.85101e-13 82.7689 44.9893 -11.6322 -14.9051 -7.70855 27.3931 -0.896965 25.8588 3.90589 5.5284e-10 -1.01122e-09 5.64169e-10 9.65582e-10 -1.74008e-09 9.62683e-10 5.52851e-10 -1.01123e-09 5.64161e-10 7.73091 5.47488 0.417314 5.52842e-10 -1.01123e-09 5.64176e-10 2.90554 0.965183 0.102902 5.52844e-10 -1.01123e-09 5.6417e-10 10.2786 0.731801 0.0259123 5.52834e-10 -1.01123e-09 5.64183e-10 2.22167 -0.733487 -0.20892 -4.83802e-14 5.0553e-14 -1.85376e-13 -79.5163 30.0453 9.88285 14.8601 -7.66986 -27.3013 0.22216 13.3034 -1.90437 9.19007e-10 1.11943e-09 4.3545e-10 1.59276e-09 1.93162e-09 7.40785e-10 9.1899e-10 1.11942e-09 4.35457e-10 -7.73091 5.47488 -0.417314 9.18999e-10 1.11942e-09 4.35446e-10 -2.90554 0.965183 -0.102902 9.19003e-10 1.11943e-09 4.35446e-10 -10.2786 0.731801 -0.0259123 9.19013e-10 1.11944e-09 4.35432e-10 -2.22167 -0.733487 0.20892 -2.03217e-16 0.0 -3.88251e-19 9.90234 -11.997 15.358 0.0490695 22.3345 0.455065 -7.77495 -11.9909 -28.0339 2.03217e-16 0.0 3.88251e-19 -4.97103 -11.3528 -18.2433 0.118601 18.7339 -0.548254 6.94424 -13.5783 19.6742
50.9914 84.6296 132.88 -179.66 3.0234 -176.254 3.12029 5.3999 2.14693 -0.144673 -8.47377 0.751233 -5.39633 8.34787 -2.11896 9.47924 -22.913 -1.49582 -0.0 0.0 0.0 -0.0 0.0 0.0 -4.89606e-14 5.07906e-14 -1.94262e-13 82.6663 44.8554 -11.5013 -14.8469 -7.65852 27.2741 -0.889777 25.7632 3.88929 3.92452e-10 -9.0156e-10 4.9449e-10 6.86565e-10 -1.55366e-09 8.45931e-10 3.92463e-10 -9.01566e-10 4.94484e-10 7.73091 5.47488 0.417314 3.92455e-10 -9.01571e-10 4.945e-10 2.90554 0.965183 0.102902 3.92457e-10 -9.01566e-10 4.94494e-10 10.2786 0.731801 0.0259123 3.92445e-10 -9.01565e-10 4.94506e-10 2.22167 -0.733487 -0.20892 -4.91429e-14 5.07872e-14 -1.9456e-13 -79.4432 29.8722 9.78064 14.8547 -7.66525 -27.2902 0.224427 13.3712 -1.91443 1.12087e-09 1.27585e-09 4.46741e-10 1.94224e-09 2.20098e-09 7.57722e-10 1.12086e-09 1.27584e-09 4.4675e-10 -7.73091 5.47488 -0.417314 1.12086e-09 1.27584e-09 4.46738e-10 -2.90554 0.965183 -0.102902 1.12087e-09 1.27585e-09 4.46736e-10 -10.2786 0.731801 -0.0259123 1.12088e-09 1.27586e-09 4.46722e-10 -2.22167 -0.733487 0.20892 -2.03217e-16 0.0 -3.88251e-19 9.89395 -12.1061 15.2688 0.0495031 22.4321 0.456571 -7.74537 -11.9933 -27.9031 2.03217e-16 0.0 3.88251e-19 -4.96571 -11.449 -18.143 0.118885 18.8402 -0.549939 6.95004 -13.658 19.6172
50.9956 84.6141 132.901 -179.653 3.1183 -176.183 3.13618 5.44197 2.15375 -0.151447 -8.4929 0.751934 -5.3561 8.36799 -2.1235 9.40186 -22.9989 -1.52322 -0.0 0.0 0.0 -0.0 0.0 0.0 -2.61821e-14 2.23225e-14 -1.34376e-13 82.5902 44.7273 -11.4286 -14.8022 -7.62027 27.1825 -0.889815 25.7636 3.88936 1.01277e-11 -4.06143e-10 2.33097e-10 2.05992e-11 -7.03325e-10 4.0275e-10 1.01378e-11 -4.06147e-10 2.33087e-10 7.73091 5.47488 0.417314 1.01305e-11 -4.06152e-10 2.33105e-10 2.90554 0.965183 0.102902 1.01338e-11 -4.06149e-10 2.33101e-10 10.2786 0.731801 0.0259123 1.01225e-11 -4.06147e-10 2.33111e-10 2.22167 -0.733487 -0.20892 -2.64168e-14 2.23184e-14 -1.34683e-13 -79.4335 29.6636 9.74365 14.843 -7.65521 -27.2661 0.22842 13.4888 -1.93189 9.23183e-10 9.3222e-10 2.53509e-10 1.59888e-09 1.60716e-09 4.26376e-10 9.23169e-10 9.32219e-10 2.53521e-10 -7.73091 5.47488 -0.417314 9.23177e-10 9.32216e-10 2.53508e-10 -2.90554 0.965183 -0.102902 9.23184e-10 9.32228e-10 2.53505e-10 -10.2786 0.731801 -0.0259123 9.23188e-10 9.3223e-10 2.53492e-10 -2.22167 -0.733487 0.20892 -2.03217e-16 0.0 -3.88251e-19 9.89861 -12.2511 15.1935 0.0500176 22.5423 0.45829 -7.71407 -11.9979 -27.7606 2.03217e-16 0.0 3.88251e-19 -4.93218 -11.5958 -17.9471 0.119308 18.9562 -0.55032 6.90802 -13.7182 19.4504
51.009 84.5992 132.923 -179.619 3.258 -176.107 3.15015 5.47973 2.13867 -0.144281 -8.55599 0.747667 -5.28642 8.40707 -2.12935 9.25883 -23.0751 -1.57365 -0.0 0.0 0.0 -0.0 0.0 0.0 1.27759e-14 -2.51453e-14 -2.86343e-14 82.5215 44.6073 -11.3764 -14.761 -7.58519 27.0981 -0.893604 25.8138 3.89808 -5.34067e-10 3.63256e-10 -1.70753e-10 -9.27717e-10 6.18463e-10 -2.83046e-10 -5.3406e-10 3.63255e-10 -1.7077e-10 7.73091 5.47488 0.417314 -5.34065e-10 3.63251e-10 -1.70749e-10 2.90554 0.965183 0.102902 -5.34059e-10 3.63253e-10 -1.70751e-10 10.2786 0.731801 0.0259123 -5.34069e-10 3.63254e-10 -1.70744e-10 2.22167 -0.733487 -0.20892 1.24955e-14 -2.51494e-14 -2.89449e-14 -79.4655 29.4202 9.74079 14.8264 -7.64103 -27.2322 0.234254 13.6568 -1.95689 4.71746e-10 2.65795e-10 -7.37708e-11 8.15515e-10 4.56123e-10 -1.33332e-10 4.71737e-10 2.65796e-10 -7.37563e-11 -7.73091 5.47488 -0.417314 4.71745e-10 2.65795e-10 -7.3771e-11 -2.90554 0.965183 -0.102902 4.71747e-10 2.65802e-10 -7.37753e-11 -10.2786 0.731801 -0.0259123 4.71749e-10 2.65804e-10 -7.37859e-11 -2.22167 -0.733487 0.20892 -2.03217e-16 0.0 -3.88251e-19 9.91067 -12.4184 15.1246 0.0505912 22.6641 0.460206 -7.68105 -12.0042 -27.6069 2.03217e-16 0.0 3.88251e-19 -4.88001 -11.7731 -17.6882 0.119807 19.0813 -0.549952 6.83611 -13.7737 19.2089
51.0067 84.5836 132.942 -179.622 3.3018 -176.04 3.15747 5.50622 2.11459 -0.130724 -8.62089 0.741137 -5.21981 8.44815 -2.13339 9.12021 -23.1495 -1.61929 -0.0 0.0 0.0 -0.0 0.0 0.0 5.17339e-14 -7.26131e-14 7.75342e-14 82.4613 44.4956 -11.3332 -14.7279 -7.55709 27.0304 -0.898254 25.8752 3.90876 -1.04023e-09 1.10688e-09 -5.60889e-10 -1.8099e-09 1.89639e-09 -9.45988e-10 -1.04023e-09 1.10688e-09 -5.60912e-10 7.73091 5.47488 0.417314 -1.04023e-09 1.10688e-09 -5.60889e-10 2.90554 0.965183 0.102902 -1.04022e-09 1.10688e-09 -5.60888e-10 10.2786 0.731801 0.0259123 -1.04023e-09 1.10688e-09 -5.60884e-10 2.22167 -0.733487 -0.20892 5.14202e-14 -7.26171e-14 7.72267e-14 -79.5132 29.1809 9.74164 14.8069 -7.62433 -27.1921 0.240272 13.8258 -1.98209 -1.68382e-11 -4.32398e-10 -4.12973e-10 -3.23012e-11 -7.49728e-10 -7.13192e-10 -1.68434e-11 -4.32394e-10 -4.12956e-10 -7.73091 5.47488 -0.417314 -1.68355e-11 -4.32394e-10 -4.12971e-10 -2.90554 0.965183 -0.102902 -1.68379e-11 -4.32391e-10 -4.12977e-10 -10.2786 0.731801 -0.0259123 -1.68365e-11 -4.32391e-10 -4.12985e-10 -2.22167 -0.733487 0.20892 -2.03217e-16 0.0 -3.88251e-19 9.91963 -12.6073 15.048 0.0511275 22.8055 0.462705 -7.65622 -12.0239 -27.4518 2.03217e-16 0.0 3.88251e-19 -4.82954 -11.9728 -17.4067 0.120325 19.2197 -0.549414 6.75458 -13.8201 18.9503
51.0002 84.5659 132.963 -179.618 3.286 -175.956 3.15337 5.51448 2.09438 -0.1183 -8.64548 0.735049 -5.1888 8.47421 -2.13249 9.05621 -23.2303 -1.63226 -0.0 0.0 0.0 -0.0 0.0 0.0 7.45123e-14 -1.01081e-13 1.38702e-13 82.4108 44.392 -11.2874 -14.7075 -7.53981 26.9889 -0.900828 25.9091 3.91465 -1.30846e-09 1.52498e-09 -7.81138e-10 -2.27746e-09 2.61512e-09 -1.32061e-09 -1.30846e-09 1.52499e-09 -7.81163e-10 7.73091 5.47488 0.417314 -1.30846e-09 1.52498e-09 -7.81141e-10 2.90554 0.965183 0.102902 -1.30845e-09 1.52498e-09 -7.81138e-10 10.2786 0.731801 0.0259123 -1.30846e-09 1.52498e-09 -7.81135e-10 2.22167 -0.733487 -0.20892 7.41835e-14 -1.01085e-13 1.38404e-13 -79.5511 28.9845 9.71594 14.7862 -7.60673 -27.1499 0.244653 13.9463 -2.00008 -3.2597e-10 -8.71329e-10 -6.4197e-10 -5.69035e-10 -1.508e-09 -1.10499e-09 -3.25973e-10 -8.71323e-10 -6.4195e-10 -7.73091 5.47488 -0.417314 -3.25965e-10 -8.71323e-10 -6.41966e-10 -2.90554 0.965183 -0.102902 -3.25971e-10 -8.71323e-10 -6.41973e-10 -10.2786 0.731801 -0.0259123 -3.25969e-10 -8.71323e-10 -6.41979e-10 -2.22167 -0.733487 0.20892 -2.03217e-16 0.0 -3.88251e-19 9.9148 -12.8174 14.9496 0.0515235 22.9743 0.466172 -7.64936 -12.0687 -27.3047 2.03217e-16 0.0 3.88251e-19 -4.80168 -12.187 -17.1431 0.120806 19.3759 -0.549285 6.6839 -13.8533 18.7327
50.9928 84.5437 132.992 -179.61 3.2658 -175.839 3.13071 5.48115 2.07257 -0.103116 -8.60236 0.727749 -5.22152 8.48452 -2.12426 9.12022 -23.3242 -1.5917 -0.0 0.0 0.0 -0.0 0.0 0.0 7.44333e-14 -1.05594e-13 1.31944e-13 82.3733 44.3052 -11.2434 -14.7087 -7.5408 26.9914 -0.898751 25.8815 3.90986 -1.24012e-09 1.48428e-09 -7.58976e-10 -2.15842e-09 2.54565e-09 -1.28371e-09 -1.24011e-09 1.48428e-09 -7.58999e-10 7.73091 5.47488 0.417314 -1.24012e-09 1.48428e-09 -7.5898e-10 2.90554 0.965183 0.102902 -1.24011e-09 1.48428e-09 -7.58977e-10 10.2786 0.731801 0.0259123 -1.24011e-09 1.48428e-09 -7.58972e-10 2.22167 -0.733487 -0.20892 7.41158e-14 -1.05599e-13 1.31666e-13 -79.5736 28.8447 9.65381 14.7632 -7.58715 -27.1027 0.246527 13.9974 -2.00772 -3.70011e-10 -9.5311e-10 -7.48455e-10 -6.46759e-10 -1.65014e-09 -1.28866e-09 -3.70013e-10 -9.53104e-10 -7.48435e-10 -7.73091 5.47488 -0.417314 -3.70005e-10 -9.53104e-10 -7.4845e-10 -2.90554 0.965183 -0.102902 -3.70013e-10 -9.53105e-10 -7.48457e-10 -10.2786 0.731801 -0.0259123 -3.70009e-10 -9.53105e-10 -7.48463e-10 -2.22167 -0.733487 0.20892 -2.03217e-16 0.0 -3.88251e-19 9.88819 -13.0601 14.8197 0.0518388 23.1772 0.471108 -7.6749 -12.1611 -27.1729 2.03217e-16 0.0 3.88251e-19 -4.80924 -12.4232 -16.9195 0.121201 19.5463 -0.549508 6.6288 -13.8533 18.585
